{
    "accessors": [
        {
            "bufferView": 0,
            "componentType": 5126,
            "count": 812,
            "max": [
                -19.049999237060547,
                -19.049999237060547,
                -19.049999237060547
            ],
            "min": [
                -56.54690933227539,
                -56.54690933227539,
                -55.244998931884766
            ],
            "name": "mesh0_coord_accessor",
            "type": "VEC3"
        },
        {
            "bufferView": 1,
            "componentType": 5126,
            "count": 812,
            "max": [
                0.9999999403953552,
                0.9999999403953552,
                0.9999999403953552
            ],
            "min": [
                -0.9995911717414856,
                -0.9999752044677734,
                -0.9978724718093872
            ],
            "name": "mesh0_norm_accessor",
            "type": "VEC3"
        },
        {
            "bufferView": 2,
            "componentType": 5125,
            "count": 3744,
            "max": [
                811
            ],
            "min": [
                0
            ],
            "name": "mesh0_idx_accessor",
            "type": "SCALAR"
        },
        {
            "bufferView": 3,
            "componentType": 5126,
            "count": 812,
            "max": [
                56.54690933227539,
                -19.049999237060547,
                -19.049999237060547
            ],
            "min": [
                19.049999237060547,
                -56.54690933227539,
                -55.244998931884766
            ],
            "name": "mesh1_coord_accessor",
            "type": "VEC3"
        },
        {
            "bufferView": 4,
            "componentType": 5126,
            "count": 812,
            "max": [
                0.9999752044677734,
                0.9999999403953552,
                0.9999999403953552
            ],
            "min": [
                -0.9999999403953552,
                -0.9995911121368408,
                -0.9978724718093872
            ],
            "name": "mesh1_norm_accessor",
            "type": "VEC3"
        },
        {
            "bufferView": 5,
            "componentType": 5125,
            "count": 3744,
            "max": [
                811
            ],
            "min": [
                0
            ],
            "name": "mesh1_idx_accessor",
            "type": "SCALAR"
        },
        {
            "bufferView": 6,
            "componentType": 5126,
            "count": 812,
            "max": [
                -19.049999237060547,
                -19.049999237060547,
                55.244998931884766
            ],
            "min": [
                -56.54690933227539,
                -56.54690933227539,
                19.049999237060547
            ],
            "name": "mesh2_coord_accessor",
            "type": "VEC3"
        },
        {
            "bufferView": 7,
            "componentType": 5126,
            "count": 812,
            "max": [
                0.9999999403953552,
                0.9999999403953552,
                0.9979046583175659
            ],
            "min": [
                -0.9995911121368408,
                -0.9999752044677734,
                -0.9999999403953552
            ],
            "name": "mesh2_norm_accessor",
            "type": "VEC3"
        },
        {
            "bufferView": 8,
            "componentType": 5125,
            "count": 3744,
            "max": [
                811
            ],
            "min": [
                0
            ],
            "name": "mesh2_idx_accessor",
            "type": "SCALAR"
        },
        {
            "bufferView": 9,
            "componentType": 5126,
            "count": 36,
            "max": [
                38.099998474121094,
                38.099998474121094,
                38.099998474121094
            ],
            "min": [
                -38.099998474121094,
                -38.099998474121094,
                -38.099998474121094
            ],
            "name": "mesh3_coord_accessor",
            "type": "VEC3"
        },
        {
            "bufferView": 10,
            "componentType": 5126,
            "count": 36,
            "max": [
                1.0,
                1.0,
                1.0
            ],
            "min": [
                -1.0,
                -1.0,
                -1.0
            ],
            "name": "mesh3_norm_accessor",
            "type": "VEC3"
        },
        {
            "bufferView": 11,
            "componentType": 5125,
            "count": 36,
            "max": [
                35
            ],
            "min": [
                0
            ],
            "name": "mesh3_idx_accessor",
            "type": "SCALAR"
        },
        {
            "bufferView": 12,
            "componentType": 5126,
            "count": 812,
            "max": [
                56.54690933227539,
                56.54690933227539,
                -19.049999237060547
            ],
            "min": [
                19.049999237060547,
                19.049999237060547,
                -55.244998931884766
            ],
            "name": "mesh4_coord_accessor",
            "type": "VEC3"
        },
        {
            "bufferView": 13,
            "componentType": 5126,
            "count": 812,
            "max": [
                0.9995911121368408,
                0.9999752044677734,
                0.9999999403953552
            ],
            "min": [
                -0.9999999403953552,
                -0.9999999403953552,
                -0.9978724718093872
            ],
            "name": "mesh4_norm_accessor",
            "type": "VEC3"
        },
        {
            "bufferView": 14,
            "componentType": 5125,
            "count": 3744,
            "max": [
                811
            ],
            "min": [
                0
            ],
            "name": "mesh4_idx_accessor",
            "type": "SCALAR"
        },
        {
            "bufferView": 15,
            "componentType": 5126,
            "count": 812,
            "max": [
                56.54690933227539,
                -19.049999237060547,
                55.244998931884766
            ],
            "min": [
                19.049999237060547,
                -56.54690933227539,
                19.049999237060547
            ],
            "name": "mesh5_coord_accessor",
            "type": "VEC3"
        },
        {
            "bufferView": 16,
            "componentType": 5126,
            "count": 812,
            "max": [
                0.9999752044677734,
                0.9999999403953552,
                0.9979046583175659
            ],
            "min": [
                -0.9999999403953552,
                -0.9995911717414856,
                -0.9999999403953552
            ],
            "name": "mesh5_norm_accessor",
            "type": "VEC3"
        },
        {
            "bufferView": 17,
            "componentType": 5125,
            "count": 3744,
            "max": [
                811
            ],
            "min": [
                0
            ],
            "name": "mesh5_idx_accessor",
            "type": "SCALAR"
        },
        {
            "bufferView": 18,
            "componentType": 5126,
            "count": 812,
            "max": [
                -19.049999237060547,
                56.54690933227539,
                -19.049999237060547
            ],
            "min": [
                -56.54690933227539,
                19.049999237060547,
                -55.244998931884766
            ],
            "name": "mesh6_coord_accessor",
            "type": "VEC3"
        },
        {
            "bufferView": 19,
            "componentType": 5126,
            "count": 812,
            "max": [
                0.9999999403953552,
                0.9995911121368408,
                0.9999999403953552
            ],
            "min": [
                -0.9999752044677734,
                -0.9999999403953552,
                -0.9978724718093872
            ],
            "name": "mesh6_norm_accessor",
            "type": "VEC3"
        },
        {
            "bufferView": 20,
            "componentType": 5125,
            "count": 3744,
            "max": [
                811
            ],
            "min": [
                0
            ],
            "name": "mesh6_idx_accessor",
            "type": "SCALAR"
        },
        {
            "bufferView": 21,
            "componentType": 5126,
            "count": 812,
            "max": [
                -19.049999237060547,
                56.54690933227539,
                55.244998931884766
            ],
            "min": [
                -56.54690933227539,
                19.049999237060547,
                19.049999237060547
            ],
            "name": "mesh7_coord_accessor",
            "type": "VEC3"
        },
        {
            "bufferView": 22,
            "componentType": 5126,
            "count": 812,
            "max": [
                0.9999999403953552,
                0.9995911717414856,
                0.9979046583175659
            ],
            "min": [
                -0.9999752044677734,
                -0.9999999403953552,
                -0.9999999403953552
            ],
            "name": "mesh7_norm_accessor",
            "type": "VEC3"
        },
        {
            "bufferView": 23,
            "componentType": 5125,
            "count": 3744,
            "max": [
                811
            ],
            "min": [
                0
            ],
            "name": "mesh7_idx_accessor",
            "type": "SCALAR"
        },
        {
            "bufferView": 24,
            "componentType": 5126,
            "count": 813,
            "max": [
                56.54690933227539,
                56.54690933227539,
                55.244998931884766
            ],
            "min": [
                19.049999237060547,
                19.049999237060547,
                19.049999237060547
            ],
            "name": "mesh8_coord_accessor",
            "type": "VEC3"
        },
        {
            "bufferView": 25,
            "componentType": 5126,
            "count": 813,
            "max": [
                0.9995911121368408,
                0.9999752044677734,
                0.9979046583175659
            ],
            "min": [
                -0.9999999403953552,
                -0.9999999403953552,
                -0.9999999403953552
            ],
            "name": "mesh8_norm_accessor",
            "type": "VEC3"
        },
        {
            "bufferView": 26,
            "componentType": 5125,
            "count": 3744,
            "max": [
                812
            ],
            "min": [
                0
            ],
            "name": "mesh8_idx_accessor",
            "type": "SCALAR"
        }
    ],
    "asset": {
        "generator": "ONSHAPE BY PTC INC, 1.198",
        "version": "2.0"
    },
    "bufferViews": [
        {
            "buffer": 0,
            "byteLength": 9744,
            "name": "mesh0_coord_bufferView",
            "target": 34962
        },
        {
            "buffer": 0,
            "byteLength": 9744,
            "byteOffset": 9744,
            "name": "mesh0_norm_bufferView",
            "target": 34962
        },
        {
            "buffer": 0,
            "byteLength": 14976,
            "byteOffset": 19488,
            "name": "mesh0_idx_bufferView",
            "target": 34963
        },
        {
            "buffer": 0,
            "byteLength": 9744,
            "byteOffset": 34464,
            "name": "mesh1_coord_bufferView",
            "target": 34962
        },
        {
            "buffer": 0,
            "byteLength": 9744,
            "byteOffset": 44208,
            "name": "mesh1_norm_bufferView",
            "target": 34962
        },
        {
            "buffer": 0,
            "byteLength": 14976,
            "byteOffset": 53952,
            "name": "mesh1_idx_bufferView",
            "target": 34963
        },
        {
            "buffer": 0,
            "byteLength": 9744,
            "byteOffset": 68928,
            "name": "mesh2_coord_bufferView",
            "target": 34962
        },
        {
            "buffer": 0,
            "byteLength": 9744,
            "byteOffset": 78672,
            "name": "mesh2_norm_bufferView",
            "target": 34962
        },
        {
            "buffer": 0,
            "byteLength": 14976,
            "byteOffset": 88416,
            "name": "mesh2_idx_bufferView",
            "target": 34963
        },
        {
            "buffer": 0,
            "byteLength": 432,
            "byteOffset": 103392,
            "name": "mesh3_coord_bufferView",
            "target": 34962
        },
        {
            "buffer": 0,
            "byteLength": 432,
            "byteOffset": 103824,
            "name": "mesh3_norm_bufferView",
            "target": 34962
        },
        {
            "buffer": 0,
            "byteLength": 144,
            "byteOffset": 104256,
            "name": "mesh3_idx_bufferView",
            "target": 34963
        },
        {
            "buffer": 0,
            "byteLength": 9744,
            "byteOffset": 104400,
            "name": "mesh4_coord_bufferView",
            "target": 34962
        },
        {
            "buffer": 0,
            "byteLength": 9744,
            "byteOffset": 114144,
            "name": "mesh4_norm_bufferView",
            "target": 34962
        },
        {
            "buffer": 0,
            "byteLength": 14976,
            "byteOffset": 123888,
            "name": "mesh4_idx_bufferView",
            "target": 34963
        },
        {
            "buffer": 0,
            "byteLength": 9744,
            "byteOffset": 138864,
            "name": "mesh5_coord_bufferView",
            "target": 34962
        },
        {
            "buffer": 0,
            "byteLength": 9744,
            "byteOffset": 148608,
            "name": "mesh5_norm_bufferView",
            "target": 34962
        },
        {
            "buffer": 0,
            "byteLength": 14976,
            "byteOffset": 158352,
            "name": "mesh5_idx_bufferView",
            "target": 34963
        },
        {
            "buffer": 0,
            "byteLength": 9744,
            "byteOffset": 173328,
            "name": "mesh6_coord_bufferView",
            "target": 34962
        },
        {
            "buffer": 0,
            "byteLength": 9744,
            "byteOffset": 183072,
            "name": "mesh6_norm_bufferView",
            "target": 34962
        },
        {
            "buffer": 0,
            "byteLength": 14976,
            "byteOffset": 192816,
            "name": "mesh6_idx_bufferView",
            "target": 34963
        },
        {
            "buffer": 0,
            "byteLength": 9744,
            "byteOffset": 207792,
            "name": "mesh7_coord_bufferView",
            "target": 34962
        },
        {
            "buffer": 0,
            "byteLength": 9744,
            "byteOffset": 217536,
            "name": "mesh7_norm_bufferView",
            "target": 34962
        },
        {
            "buffer": 0,
            "byteLength": 14976,
            "byteOffset": 227280,
            "name": "mesh7_idx_bufferView",
            "target": 34963
        },
        {
            "buffer": 0,
            "byteLength": 9756,
            "byteOffset": 242256,
            "name": "mesh8_coord_bufferView",
            "target": 34962
        },
        {
            "buffer": 0,
            "byteLength": 9756,
            "byteOffset": 252012,
            "name": "mesh8_norm_bufferView",
            "target": 34962
        },
        {
            "buffer": 0,
            "byteLength": 14976,
            "byteOffset": 261768,
            "name": "mesh8_idx_bufferView",
            "target": 34963
        }
    ],
    "buffers": [
        {
            "byteLength": 276744,
            "name": "Total_buffer",
            "uri": "data:application/octet-stream;base64,"
        }
    ],
    "extensionsUsed": [
        "PTC_onshape_metadata"
    ],
    "materials": [
        {
            "doubleSided": true,
            "name": "1.000000_1.000000_1.000000_0.000000_0.000000",
            "pbrMetallicRoughness": {
                "metallicFactor": 0.0
            }
        },
        {
            "doubleSided": true,
            "name": "0.058824_0.580392_0.415686_0.000000_0.000000",
            "pbrMetallicRoughness": {
                "baseColorFactor": [
                    0.05882352963089943,
                    0.5803921818733215,
                    0.4156862795352936,
                    1.0
                ],
                "metallicFactor": 0.0
            }
        }
    ],
    "meshes": [
        {
            "name": "mesh0_mesh",
            "primitives": [
                {
                    "attributes": {
                        "NORMAL": 1,
                        "POSITION": 0
                    },
                    "indices": 2,
                    "material": 0
                }
            ]
        },
        {
            "name": "mesh1_mesh",
            "primitives": [
                {
                    "attributes": {
                        "NORMAL": 4,
                        "POSITION": 3
                    },
                    "indices": 5,
                    "material": 0
                }
            ]
        },
        {
            "name": "mesh2_mesh",
            "primitives": [
                {
                    "attributes": {
                        "NORMAL": 7,
                        "POSITION": 6
                    },
                    "indices": 8,
                    "material": 0
                }
            ]
        },
        {
            "name": "mesh3_mesh",
            "primitives": [
                {
                    "attributes": {
                        "NORMAL": 10,
                        "POSITION": 9
                    },
                    "indices": 11,
                    "material": 1
                }
            ]
        },
        {
            "name": "mesh4_mesh",
            "primitives": [
                {
                    "attributes": {
                        "NORMAL": 13,
                        "POSITION": 12
                    },
                    "indices": 14,
                    "material": 0
                }
            ]
        },
        {
            "name": "mesh5_mesh",
            "primitives": [
                {
                    "attributes": {
                        "NORMAL": 16,
                        "POSITION": 15
                    },
                    "indices": 17,
                    "material": 0
                }
            ]
        },
        {
            "name": "mesh6_mesh",
            "primitives": [
                {
                    "attributes": {
                        "NORMAL": 19,
                        "POSITION": 18
                    },
                    "indices": 20,
                    "material": 0
                }
            ]
        },
        {
            "name": "mesh7_mesh",
            "primitives": [
                {
                    "attributes": {
                        "NORMAL": 22,
                        "POSITION": 21
                    },
                    "indices": 23,
                    "material": 0
                }
            ]
        },
        {
            "name": "mesh8_mesh",
            "primitives": [
                {
                    "attributes": {
                        "NORMAL": 25,
                        "POSITION": 24
                    },
                    "indices": 26,
                    "material": 0
                }
            ]
        }
    ],
    "nodes": [
        {
            "extensions": {
                "PTC_onshape_metadata": {
                    "entity_type": "Body",
                    "id": [
                        "JFL"
                    ],
                    "onshape_body_id": "93"
                }
            },
            "mesh": 0,
            "name": "mesh_2"
        },
        {
            "extensions": {
                "PTC_onshape_metadata": {
                    "entity_type": "Body",
                    "id": [
                        "JFP"
                    ],
                    "onshape_body_id": "111"
                }
            },
            "mesh": 1,
            "name": "mesh_3"
        },
        {
            "extensions": {
                "PTC_onshape_metadata": {
                    "entity_type": "Body",
                    "id": [
                        "JFb"
                    ],
                    "onshape_body_id": "165"
                }
            },
            "mesh": 2,
            "name": "mesh_6"
        },
        {
            "extensions": {
                "PTC_onshape_metadata": {
                    "entity_type": "Body",
                    "id": [
                        "JFD"
                    ],
                    "onshape_body_id": "56"
                }
            },
            "mesh": 3,
            "name": "mesh_0"
        },
        {
            "extensions": {
                "PTC_onshape_metadata": {
                    "entity_type": "Body",
                    "id": [
                        "JFT"
                    ],
                    "onshape_body_id": "129"
                }
            },
            "mesh": 4,
            "name": "mesh_4"
        },
        {
            "extensions": {
                "PTC_onshape_metadata": {
                    "entity_type": "Body",
                    "id": [
                        "JFf"
                    ],
                    "onshape_body_id": "183"
                }
            },
            "mesh": 5,
            "name": "mesh_7"
        },
        {
            "extensions": {
                "PTC_onshape_metadata": {
                    "entity_type": "Body",
                    "id": [
                        "JFH"
                    ],
                    "onshape_body_id": "75"
                }
            },
            "mesh": 6,
            "name": "mesh_1"
        },
        {
            "extensions": {
                "PTC_onshape_metadata": {
                    "entity_type": "Body",
                    "id": [
                        "JFX"
                    ],
                    "onshape_body_id": "147"
                }
            },
            "mesh": 7,
            "name": "mesh_5"
        },
        {
            "extensions": {
                "PTC_onshape_metadata": {
                    "entity_type": "Body",
                    "id": [
                        "JFj"
                    ],
                    "onshape_body_id": "201"
                }
            },
            "mesh": 8,
            "name": "mesh_8"
        }
    ],
    "scene": 0,
    "scenes": [
        {
            "name": "Root",
            "nodes": [
                0,
                1,
                2,
                3,
                4,
                5,
                6,
                7,
                8
            ]
        }
    ]
}